<svg width="17" height="23" viewBox="0 0 17 23" fill="none" xmlns="http://www.w3.org/2000/svg">
<path d="M8.5 0C4.03917 0 0.414062 3.6252 0.414062 8.08594C0.414062 9.59531 0.831926 11.0643 1.627 12.3311L7.95186 22.6817C8.05977 22.8569 8.22148 22.9648 8.4102 22.9917C8.66617 23.0321 8.94931 22.9244 9.09751 22.6683L15.4405 12.2232C16.1951 10.9834 16.5859 9.54145 16.5859 8.08594C16.5859 3.6252 12.9608 0 8.5 0ZM8.5 12.1289C6.23603 12.1289 4.45703 10.2961 4.45703 8.08594C4.45703 5.86226 6.27632 4.04297 8.5 4.04297C10.7237 4.04297 12.543 5.86226 12.543 8.08594C12.543 10.2826 10.791 12.1289 8.5 12.1289Z" fill="#E7760D"/>
</svg>
